# xmcd
#
# Track frame offsets: 
#        150
#        20410
#        44775
#        66117
#        94427
#        127967
#        150122
#        170697
#
# Disc length: 2658 seconds
#
# Revision: 7
# Processed by: cddbd v1.5.2PL0 Copyright (c) Steve Scherf et al.
# Submitted via: ExactAudioCopy v1.0b6
#
DISCID=650a6008
DTITLE=Wes Montgomery - The Incredible Jazz Guitar
DYEAR=1960
DGENRE=Jazz
TTITLE0=Airegin
TTITLE1=D-Natural Blues
TTITLE2=Polka Dots And Moonbeams
TTITLE3=Four On Six
TTITLE4=West Coast Blues
TTITLE5=In Your Own Sweet Way
TTITLE6=Mr. Walker (Renie)
TTITLE7=Gone With The Wind
EXTD=Wes Montgomery-guitar\nTommy Flanagan-piano\nPercy Heath-bass\nAl
EXTD=bert Heath-drums
EXTT0=
EXTT1=
EXTT2=
EXTT3=
EXTT4=
EXTT5=
EXTT6=
EXTT7=
PLAYORDER=
